<svg xmlns="http://www.w3.org/2000/svg" viewBox="0 0 32 32" fill="none">
  <g transform="translate(-6, -6) scale(1.5)">
    <path d="M7 14c0-2 1.5-4 4-4.5 1-.2 2.5.3 3 1.5.6 1.5-.2 3.5-1.5 4-1.5.6-3.5.5-4.5-.2-.5-.4-1-.5-1-.8z" fill="#888" fill-opacity="0.4" stroke="#888" stroke-width="1.2" stroke-opacity="0.9"/>
    <path d="M14 8c1.2-1 3-.8 4.2.2 1 .8 1.5 2.2.8 3.5-.6 1.2-2 1.8-3.5 1.5-1.5-.4-2.2-1.8-2-3.2.1-.7.2-1.5.5-2z" fill="#888" fill-opacity="0.3" stroke="#888" stroke-width="1.2" stroke-opacity="0.9"/>
    <path d="M20 12c1.5-.5 3.2 0 4 1.3.7 1.2.5 2.8-.5 3.8-1 .9-2.5 1-3.6.3-1.2-.8-1.5-2.2-1-3.5.3-.7.6-1.5 1.1-1.9z" fill="#888" fill-opacity="0.45" stroke="#888" stroke-width="1.2" stroke-opacity="0.9"/>
    <path d="M10 18c-.3-1 .5-2.2 1.8-2.5 1.4-.3 3 .4 3.5 1.8.4 1.2-.1 2.6-1.2 3.2-1.3.7-2.8.3-3.5-.7-.3-.5-.5-1.1-.6-1.8z" fill="#888" fill-opacity="0.35" stroke="#888" stroke-width="1.2" stroke-opacity="0.9"/>
    <path d="M17 17c.8-1.2 2.5-1.5 3.8-.7 1.1.7 1.6 2 1.2 3.3-.4 1.2-1.6 2-2.9 1.8-1.4-.2-2.4-1.3-2.4-2.6 0-.6.1-1.2.3-1.8z" fill="#888" fill-opacity="0.4" stroke="#888" stroke-width="1.2" stroke-opacity="0.9"/>
    <path d="M12 22c-.2-.8.4-1.8 1.5-2 1.2-.3 2.5.3 2.8 1.4.3 1-.2 2-1.2 2.3-1.1.3-2.2-.2-2.7-1-.2-.2-.3-.4-.4-.7z" fill="#888" fill-opacity="0.25" stroke="#888" stroke-width="1.2" stroke-opacity="0.9"/>
    <path d="M9 13.5c1.5-.8 3.5-.3 4.5 1" stroke="#888" stroke-width="1" stroke-linecap="round" opacity="0.7"/>
    <path d="M16 10c1.2.5 2 1.8 1.8 3" stroke="#888" stroke-width="1" stroke-linecap="round" opacity="0.7"/>
    <path d="M19 14.5c1 .2 2 1 2 2.2" stroke="#888" stroke-width="1" stroke-linecap="round" opacity="0.7"/>
    <path d="M12 19c1-.3 2.2.1 2.8 1.2" stroke="#888" stroke-width="1" stroke-linecap="round" opacity="0.7"/>
    <path d="M18 19.5c.6.5.8 1.4.5 2.2" stroke="#888" stroke-width="1" stroke-linecap="round" opacity="0.7"/>
  </g>
</svg>
