<svg xmlns="http://www.w3.org/2000/svg" width="1200" height="630" viewBox="0 0 1200 630">
  <rect width="1200" height="630" fill="#141414"/>
  <!-- Large icon centered in upper portion -->
  <g transform="translate(330, -50) scale(18)" opacity="0.9">
    <path d="M7 14c0-2 1.5-4 4-4.5 1-.2 2.5.3 3 1.5.6 1.5-.2 3.5-1.5 4-1.5.6-3.5.5-4.5-.2-.5-.4-1-.5-1-.8z" fill="#d4d4d4" opacity="0.15" stroke="#d4d4d4" stroke-width="0.8" stroke-opacity="0.6"/>
    <path d="M14 8c1.2-1 3-.8 4.2.2 1 .8 1.5 2.2.8 3.5-.6 1.2-2 1.8-3.5 1.5-1.5-.4-2.2-1.8-2-3.2.1-.7.2-1.5.5-2z" fill="#d4d4d4" opacity="0.1" stroke="#d4d4d4" stroke-width="0.8" stroke-opacity="0.6"/>
    <path d="M20 12c1.5-.5 3.2 0 4 1.3.7 1.2.5 2.8-.5 3.8-1 .9-2.5 1-3.6.3-1.2-.8-1.5-2.2-1-3.5.3-.7.6-1.5 1.1-1.9z" fill="#d4d4d4" opacity="0.2" stroke="#d4d4d4" stroke-width="0.8" stroke-opacity="0.6"/>
    <path d="M10 18c-.3-1 .5-2.2 1.8-2.5 1.4-.3 3 .4 3.5 1.8.4 1.2-.1 2.6-1.2 3.2-1.3.7-2.8.3-3.5-.7-.3-.5-.5-1.1-.6-1.8z" fill="#d4d4d4" opacity="0.12" stroke="#d4d4d4" stroke-width="0.8" stroke-opacity="0.6"/>
    <path d="M17 17c.8-1.2 2.5-1.5 3.8-.7 1.1.7 1.6 2 1.2 3.3-.4 1.2-1.6 2-2.9 1.8-1.4-.2-2.4-1.3-2.4-2.6 0-.6.1-1.2.3-1.8z" fill="#d4d4d4" opacity="0.18" stroke="#d4d4d4" stroke-width="0.8" stroke-opacity="0.6"/>
    <path d="M12 22c-.2-.8.4-1.8 1.5-2 1.2-.3 2.5.3 2.8 1.4.3 1-.2 2-1.2 2.3-1.1.3-2.2-.2-2.7-1-.2-.2-.3-.4-.4-.7z" fill="#d4d4d4" opacity="0.08" stroke="#d4d4d4" stroke-width="0.8" stroke-opacity="0.6"/>
    <path d="M9 13.5c1.5-.8 3.5-.3 4.5 1" stroke="#d4d4d4" stroke-width="0.7" stroke-linecap="round" opacity="0.4"/>
    <path d="M16 10c1.2.5 2 1.8 1.8 3" stroke="#d4d4d4" stroke-width="0.7" stroke-linecap="round" opacity="0.4"/>
    <path d="M19 14.5c1 .2 2 1 2 2.2" stroke="#d4d4d4" stroke-width="0.7" stroke-linecap="round" opacity="0.4"/>
    <path d="M12 19c1-.3 2.2.1 2.8 1.2" stroke="#d4d4d4" stroke-width="0.7" stroke-linecap="round" opacity="0.4"/>
    <path d="M18 19.5c.6.5.8 1.4.5 2.2" stroke="#d4d4d4" stroke-width="0.7" stroke-linecap="round" opacity="0.4"/>
  </g>
  <!-- Site name -->
  <text x="600" y="466" text-anchor="middle" font-family="monospace" font-size="52" font-weight="700" fill="#d4d4d4">Scrambled Kitchen</text>
  <!-- Tagline -->
  <text x="600" y="516" text-anchor="middle" font-family="monospace" font-size="22" fill="#777">thoughts · journeys · reads · flashcards</text>
  <!-- CTA -->
  <text x="600" y="572" text-anchor="middle" font-family="monospace" font-size="18" fill="#555">huydo862003.github.io</text>
</svg>
